<svg height="512" viewBox="0 0 512 512" width="512" xmlns="http://www.w3.org/2000/svg"><g id="Planting-4" data-name="Planting"><g id="Flat"><path d="m488 512h-464a24 24 0 0 1 -24-24v-80c0-4.581 26.636-56 96-56 47.669 0 96 29.962 96 80a64 64 0 0 0 128 0c0-50.189 48.619-80 96-80 69.925 0 95.81 51.209 96 56v80a24 24 0 0 1 -24 24z" fill="#a1887f"/><path d="m256 503.762a8.214 8.214 0 0 0 -7.267-8.172 64.094 64.094 0 0 1 -56.733-63.59c0-26.363-13.419-47.149-33.085-60.921a168.148 168.148 0 0 1 -115.58 140.921h204.427a8.238 8.238 0 0 0 8.238-8.238z" fill="#9c7b70"/><path d="m463.731 361.443a168.094 168.094 0 0 1 -116.396 150.557h140.665a24 24 0 0 0 24-24v-80c-.138-3.485-13.879-31.526-48.269-46.557z" fill="#9c7b70"/><path d="m217.773 309.657-113.14-113.14a8.068 8.068 0 0 1 0-11.314l175.367-175.36a32.134 32.134 0 0 1 45.254 0l113.146 113.14a32.036 32.036 0 0 1 0 45.254l-141.43 141.42a8.088 8.088 0 0 1 -11.315 0 40.219 40.219 0 0 0 -56.565 0 8 8 0 0 1 -11.317 0z" fill="#f8e868"/><path d="m406.967 91.554c-65.214 79.853-164.029 131.186-274.876 132.42l85.682 85.683a8 8 0 0 0 11.314 0 40.219 40.219 0 0 1 56.565 0 8.088 8.088 0 0 0 11.315 0l141.433-141.42a32.036 32.036 0 0 0 0-45.254z" fill="#f6e23d"/><path d="m45.608 400.577c13.779-11 30.733-16.577 50.392-16.577 10.161 0 10.3 16 0 16-15.941 0-29.537 4.4-40.409 13.081-8.391 6.701-18.022-6.087-9.983-12.504z" fill="#876559"/><path d="m352 432c0-17.953 10.207-32.4 28.739-40.669 9.112-4.068 16.071 10.347 6.522 14.61-12.961 5.786-19.261 14.31-19.261 26.059 0 10.083-16 10.364-16 0z" fill="#876559"/><path d="m283.966 128.769h55v16h-55z" fill="#66bb6a" transform="matrix(.707 -.707 .707 .707 -5.483 260.301)"/><path d="m347.882 145.608-45.255-45.255c-7.63-7.5 4.349-18.4 11.314-11.313l45.259 45.254c7.236 7.116-4.093 18.662-11.318 11.314z" fill="#eed60f"/><rect fill="#eed60f" height="222.032" rx="8" transform="matrix(.707 -.707 .707 .707 -99.16 221.451)" width="16" x="209.736" y="119.406"/><g fill="#81c784"><circle cx="248" cy="328" r="8"/><circle cx="280" cy="360" r="8"/><circle cx="248" cy="392" r="8"/><circle cx="216" cy="424" r="8"/><circle cx="264" cy="424" r="8"/><circle cx="280" cy="456" r="8"/><circle cx="248" cy="472" r="8"/></g><path d="m60 496c-37.443 0-36.222-55-.678-55.992 17.04-39.453 76.678-26.994 76.678 15.992 0 10.083-16 10.365-16 0 0-29.644-41.117-31.931-47.35-5.541a8.105 8.105 0 0 1 -9.729 5.922c-17.35-4.35-20.654 23.619-2.921 23.619 10.162 0 10.3 16 0 16z" fill="#876559"/><path d="m472 504c-10.624 0-9.99-16 0-16 21.812 0 17.908-32 .208-32a8 8 0 0 1 -8-8c0-32.419-48.208-31.286-48.208 0 0 10.083-16 10.364-16 0 0-49.977 71.665-53.569 79.64-6.881 33.282 9.963 30.76 62.881-7.64 62.881z" fill="#876559"/><path d="m329.629 179.359c-5.741-19.018-21.552-26.659-30.334-29.506-2.882-8.786-10.6-24.609-29.731-30.384-24.373-7.357-57.785 5.638-59.2 6.2a8.078 8.078 0 0 0 -3.626 12.012c3.414 4.9 37.684 45.176 65.554 39.155-6.094 26.882 29.641 58.5 39.037 64.993a8.1 8.1 0 0 0 11.977-3.616c.564-1.407 13.635-34.632 6.323-58.854z" fill="#81c784"/><path d="m329.629 179.359a42.109 42.109 0 0 0 -6.067-12.424 84.233 84.233 0 0 1 -39.781 47.059c9.7 13.473 22.474 24.323 27.552 27.831a8.1 8.1 0 0 0 11.977-3.616c.56-1.403 13.631-34.628 6.319-58.85z" fill="#66bb6a"/><circle cx="304" cy="32" fill="#fcf5be" r="16"/><circle cx="328" cy="56" fill="#fcf5be" r="8"/><circle cx="224" cy="136" fill="#c8e6c9" r="8"/></g></g></svg>