<svg id="Capa_1" enable-background="new 0 0 512 512" height="512" viewBox="0 0 512 512" width="512" xmlns="http://www.w3.org/2000/svg"><g><path d="m361 45v91c0 8.399-6.599 15-15 15s-15-6.601-15-15v-91c0-8.401-6.599-15-15-15h-120c-8.401 0-15 6.599-15 15v91c0 8.399-6.599 15-15 15s-15-6.601-15-15v-91c0-24.901 20.099-45 45-45h120c24.901 0 45 20.099 45 45z" fill="#704c55"/><path d="m361 45v91c0 8.399-6.599 15-15 15s-15-6.601-15-15v-91c0-8.401-6.599-15-15-15h-60v-30h60c24.901 0 45 20.099 45 45z" fill="#5a344b"/><path d="m436 121h-360c-8.401 0-15 6.599-15 15v361c0 8.399 6.599 15 15 15h360c8.401 0 15-6.601 15-15v-361c0-8.401-6.599-15-15-15z" fill="#fed843"/><path d="m451 136v361c0 8.399-6.599 15-15 15h-180v-391h180c8.401 0 15 6.599 15 15z" fill="#fabe2c"/><g><path d="m342.543 381.332-42.422-42.422c-5.859-5.859-15.352-5.859-21.211 0s-5.859 15.352 0 21.211l42.422 42.422c5.859 5.859 15.352 5.859 21.211 0s5.859-15.352 0-21.211z" fill="#fff7cc"/><path d="m342.543 381.332-42.422-42.422c-5.859-5.859-15.352-5.859-21.211 0l63.633 63.633c5.859-5.859 5.859-15.352 0-21.211z" fill="#ffe6b3"/><path d="m374.422 377h-42.422c-4.146 0-7.896 1.677-10.609 4.391s-4.391 6.464-4.391 10.609v42.422c0 8.291 6.709 15 15 15s15-6.709 15-15v-27.422h27.422c8.291 0 15-6.709 15-15s-6.709-15-15-15z" fill="#fff7cc"/><path d="m389.422 392c0-8.291-6.709-15-15-15h-42.422c-4.146 0-7.896 1.677-10.609 4.391l25.609 25.609h27.422c8.291 0 15-6.709 15-15z" fill="#ffe6b3"/><path d="m300.121 254.052-63.647-63.633-53.027 53.027-53.027 53.027 63.633 63.647c29.29 29.29 76.89 29.18 106.069 0 29.223-29.237 29.223-76.83-.001-106.068z" fill="#9b786f"/><path d="m300.121 254.052-63.647-63.633-53.027 53.027 116.675 116.675c29.223-29.238 29.223-76.831-.001-106.069z" fill="#704c55"/><path d="m236.474 190.419c-22.242-22.242-61.71-1.95-84.844 21.211-22.916 22.89-43.585 62.485-21.226 84.844 22.143 22.09 61.772 1.875 84.858-21.211 23.202-23.202 43.452-62.637 21.212-84.844z" fill="#ff6c6c"/><path d="m236.474 190.419c-22.242-22.242-61.71-1.95-84.844 21.211l63.633 63.633c23.201-23.202 43.451-62.637 21.211-84.844z" fill="#e63950"/></g></g></svg>