<?xml version="1.0" encoding="iso-8859-1"?>
<!-- Generator: Adobe Illustrator 19.0.0, SVG Export Plug-In . SVG Version: 6.00 Build 0)  -->
<svg version="1.1" id="Capa_1" xmlns="http://www.w3.org/2000/svg" xmlns:xlink="http://www.w3.org/1999/xlink" x="0px" y="0px"
	 viewBox="0 0 512 512" style="enable-background:new 0 0 512 512;" xml:space="preserve">
<path style="fill:#DDDDDD;" d="M429.359,176.947l-35.765,13.966l-2.117-0.37v33.381l1.441-0.201l34.934,15.03
	c3.104,1.335,6.571-0.898,6.64-4.275l1.079-53.194C435.637,178.037,432.383,175.766,429.359,176.947z"/>
<path style="fill:#DADADA;" d="M391.477,197.675v26.249l1.441-0.201l34.934,15.03c3.104,1.335,6.571-0.898,6.64-4.275l0.368-18.136
	L391.477,197.675z"/>
<path style="fill:#DDDDDD;" d="M285.126,11.12c-7.361-5.574-17.847-4.125-23.422,3.236l-7.622,10.065l26.658,20.186l7.622-10.065
	C293.936,27.18,292.487,16.694,285.126,11.12z"/>
<path style="fill:#DADADA;" d="M275.092,24.968c3.767-4.974,9.776-7.237,15.549-6.469c-4.612-12.136-20.953-14.686-28.937-4.144
	l-7.622,10.065l13.616,10.311L275.092,24.968z"/>
<path style="fill:#DDDDDD;" d="M134.432,23.346C117.57,10.577,96.712,5.146,75.699,8.044c-71.988,9.947-93.82,104.407-32.88,144.706
	l0.345,0.229l19.627-20.092c-0.203-0.2-23.838-10.694-27.773-39.188C31.078,65.175,50.901,38.99,79.431,35.05
	c36.784-5.073,52.748,26.606,52.848,26.703l19.638-20.104C151.473,41.104,145.788,31.943,134.432,23.346z"/>
<path style="fill:#DADADA;" d="M42.525,20.586C-4.516,51.961-4.524,121.443,42.819,152.75l0.345,0.229l19.073-19.524
	C24.628,108.246,15.848,56.824,42.525,20.586z"/>
<path style="fill:#BC3535;" d="M297.263,67.982c-1.143-8.276-5.415-15.592-12.029-20.6l-35.042-26.535
	c-13.708-10.38-33.309-7.675-43.69,6.035l-2.96,3.91l84.767,64.19C289.41,92.94,299.464,83.918,297.263,67.982z"/>
<path style="fill:#BC2828;" d="M260.974,29.012l-10.782-8.165c-13.708-10.38-33.309-7.675-43.69,6.035l-2.96,3.91l19.788,14.985
	C223.681,45.507,236.225,25.209,260.974,29.012z"/>
<polygon style="fill:#DADADA;" points="277.902,170.706 393.594,190.913 392.918,223.723 234.636,245.825 "/>
<polygon style="fill:#A9A9AA;" points="250.175,218.846 234.636,245.826 392.918,223.723 393.431,198.841 "/>
<path style="fill:#E83D3D;" d="M169.53,23.192L37.277,158.578c-7.2,7.371-6.304,19.386,1.911,25.607l146.033,110.583
	c8.215,6.22,20.023,3.826,25.166-5.103l94.458-164.006c4.304-7.473,2.376-16.982-4.499-22.189L192.108,21.507
	C185.233,16.301,175.557,17.023,169.53,23.192z"/>
<g>
	<path style="fill:#BC3535;" d="M54.641,177.086L191.893,36.583c3.546-3.63,8.308-5.438,13.068-5.343l-12.853-9.733
		c-6.875-5.206-16.551-4.484-22.578,1.685L37.277,158.578c-7.2,7.371-6.303,19.386,1.911,25.607l10.623,8.044
		C48.989,186.922,50.543,181.281,54.641,177.086z"/>
	<path style="fill:#BC3535;" d="M37.277,158.578c-7.2,7.371-6.304,19.386,1.911,25.607l146.033,110.583
		c8.215,6.22,20.023,3.826,25.166-5.103l10.439-18.125L51.893,143.616L37.277,158.578z"/>
</g>
<path style="fill:#BC2828;" d="M37.956,183.142c0.394,0.36,0.797,0.714,1.232,1.043l3.25,2.461l7.373,5.583
	c-0.822-5.307,0.732-10.948,4.829-15.143l17.625-18.043l-20.373-15.427l-14.616,14.962c-3.6,3.685-5.176,8.532-4.825,13.234
	c0.176,2.352,0.833,4.667,1.959,6.783c0.845,1.587,1.954,3.063,3.322,4.357C37.804,183.019,37.885,183.077,37.956,183.142z"/>
<path style="fill:#91CBF2;" d="M178.162,179.291c-11.973-0.584-22.07-8.16-25.909-19.619c-5.156-15.391,3.81-32.335,19.223-37.425
	l29.707-9.808c4.648-1.535,9.393,2.059,9.176,6.948l-1.387,31.253C208.254,166.857,194.376,180.081,178.162,179.291z"/>
<path style="fill:#69BDE2;" d="M182.365,141.623c24.831-19.71,24.241-20.918,27.954-21.291l0.042-0.945
	c0.217-4.89-4.528-8.483-9.176-6.948l-29.707,9.808c-22.232,7.34-28.239,36.719-9.361,51.317c3.632,2.693,7.924,4.553,12.601,5.335
	C168.125,166.658,171.221,150.702,182.365,141.623z"/>
<path style="fill:#843A24;" d="M191.817,399.169c-18.069-10.492-39.062-16.505-61.462-16.505c-61.694,0-112.74,45.573-121.32,104.89
	c-1.307,9.036,5.63,17.154,14.76,17.154h106.896C130.89,459.633,155.417,420.305,191.817,399.169z"/>
<g>
	<path style="fill:#AA563C;" d="M314.742,399.169c-18.069-10.492-39.062-16.505-61.462-16.505
		c-67.524,0-122.291,54.591-122.588,122.045h122.925C253.814,459.633,278.342,420.305,314.742,399.169z"/>
	<path style="fill:#AA563C;" d="M504.741,490.543V388.279c0-3.1-2.513-5.613-5.613-5.614l0,0
		c-67.524,0-122.291,54.591-122.588,122.045h114.035C498.399,504.709,504.741,498.366,504.741,490.543z"/>
</g>
<path style="fill:#843A24;" d="M437.665,399.169c-80.705-46.861-183.632,10.867-184.05,105.539H376.54
	C376.739,459.633,401.266,420.305,437.665,399.169z"/>
<path style="fill:#772E1D;" d="M34.036,487.554c7.994-55.268,52.857-98.597,108.848-104.255c-4.119-0.418-8.298-0.634-12.528-0.634
	c-61.694,0-112.741,45.573-121.32,104.89c-1.307,9.036,5.63,17.154,14.76,17.154h25.001
	C39.666,504.709,32.729,496.59,34.036,487.554z"/>
<g>
	<path style="fill:#93482B;" d="M265.772,383.295c-4.108-0.416-8.275-0.63-12.493-0.63c-67.524,0-122.291,54.591-122.588,122.045
		h25.001C155.971,441.473,204.121,389.542,265.772,383.295z"/>
	<path style="fill:#93482B;" d="M503.222,384.447c-1.024-1.094-2.477-1.782-4.094-1.783c-67.523,0-122.291,54.591-122.588,122.045
		h25.001C401.807,444.376,445.652,394.34,503.222,384.447z"/>
</g>
<path style="fill:#772E1D;" d="M388.697,383.295c-72.359-7.328-134.763,49.242-135.081,121.415h25.001
	C278.895,441.473,327.045,389.542,388.697,383.295z"/>
<path style="fill:#9AD14B;" d="M426.128,326.407c-13.082-2.436-26.273,4.563-31.596,16.746c-1.897,4.343,0.85,9.319,5.513,10.163
	c1.685,0.305,3.386,0.457,5.086,0.457c11.114,0,21.716-6.576,26.37-17.231C433.375,332.254,430.73,327.264,426.128,326.407z"/>
<path style="fill:#8DC133;" d="M412.982,338.801c5.753-3.049,12.286-4.093,18.749-2.882c1.376-4.137-1.222-8.696-5.603-9.511
	c-13.083-2.436-26.273,4.563-31.596,16.746c-1.871,4.284,0.781,9.177,5.329,10.119C401.472,348.449,406.353,342.315,412.982,338.801
	z"/>
<path style="fill:#9AD14B;" d="M327.68,326.281c-5.102,0.815-7.986,6.255-5.796,10.935c5.398,11.539,18.035,18.298,30.775,16.165
	c5.008-0.838,7.738-6.3,5.586-10.899C352.847,330.944,340.282,324.268,327.68,326.281z"/>
<path style="fill:#8DC133;" d="M329.237,326.096c-0.52,0.054-1.039,0.102-1.557,0.185c-5.102,0.815-7.986,6.255-5.796,10.935
	c5.374,11.488,17.976,18.307,30.775,16.166c4.875-0.816,7.577-6.011,5.733-10.529C345.421,344.201,333.409,336.325,329.237,326.096z
	"/>
<g>
	<path style="fill:#9AD14B;" d="M381.27,320.721c9.633-10.855,9.499-27.073,0.346-37.766c-2.923-3.415-8.262-3.288-11.019,0.263
		c-4.017,5.174-6.153,11.575-5.992,18.307C364.865,312.407,373.646,328.345,381.27,320.721z"/>
	<path style="fill:#9AD14B;" d="M252.915,355.683c0.371,0.301,3.219,2.431,6.685-0.031c10.591-10.831,10.731-27.711,1.366-38.724
		c-2.943-3.461-8.361-3.332-11.136,0.266c-3.981,5.162-6.096,11.533-5.936,18.234C244.081,343.226,247.329,350.425,252.915,355.683z
		"/>
	<path style="fill:#9AD14B;" d="M132.996,375.898c0.039,0.027,3.053,2.141,6.223,0c5.563-5.557,8.598-13.062,8.408-21.037
		c-0.169-7.098-2.871-13.705-7.568-18.799c-2.61-2.83-7.169-2.721-9.64,0.231c-4.449,5.313-6.832,12.041-6.662,19.137
		C123.945,363.33,127.272,370.622,132.996,375.898z"/>
</g>
<g>
	<path style="fill:#8DC133;" d="M387.363,293.636c-1.172,4.087-3.237,7.867-6.093,11.085c-6.313,6.313-13.238-3.86-15.539-11.857
		c-2.772,9.691-0.416,20.322,6.846,27.885c0.283,0.279,4.432,4.234,8.693-0.027C388.071,313.057,389.977,302.755,387.363,293.636z"
		/>
	<path style="fill:#8DC133;" d="M259.6,339.652c-3.466,2.462-6.313,0.332-6.685,0.031c-3.777-3.555-6.48-7.999-7.896-12.913
		c-2.981,10.421,0.022,21.504,7.896,28.914c0.371,0.301,3.219,2.431,6.685-0.031c7.442-7.611,9.839-18.387,7.056-28.107
		C265.356,332.075,262.953,336.223,259.6,339.652z"/>
	<path style="fill:#8DC133;" d="M139.219,359.896c-3.17,2.141-6.184,0.028-6.223,0c-3.903-3.596-6.688-8.131-8.128-13.156
		c-0.797,2.779-1.184,5.7-1.112,8.688c0.188,7.901,3.516,15.193,9.24,20.468c0.039,0.027,3.053,2.141,6.223,0
		c5.563-5.557,8.598-13.062,8.408-21.037c-0.06-2.51-0.443-4.956-1.112-7.297C145.184,352.193,142.695,356.425,139.219,359.896z"/>
</g>
<path d="M31.646,153.14c-10.321,10.597-9.028,27.866,2.773,36.801l146.033,110.583c11.853,8.975,28.827,5.449,36.192-7.339
	c1.523-2.644,19.467-33.8,23.421-40.665l151.576-21.301c33.82,14.197,33.435,15.201,37.854,15.201
	c6.604,0,12.119-5.28,12.254-12.013l1.079-53.193c0.083-4.033-1.843-7.82-5.15-10.13c-3.31-2.312-7.529-2.816-11.287-1.346
	c0,0,0,0-0.001,0l-33.805,13.201l-37.754-6.651c-4.083-0.719-7.969,2.006-8.688,6.084c-0.718,4.08,2.006,7.97,6.085,8.688
	l33.496,5.901l-0.412,19.999L249.56,236.036c2.936-5.098,29.506-51.229,32.978-57.256l35.113,6.186
	c4.085,0.727,7.97-2.005,8.688-6.084c0.718-4.08-2.006-7.97-6.085-8.688l-29.753-5.242l20.603-35.773
	c6.176-10.722,3.395-24.441-6.471-31.912l-6.264-4.743c10.18-15.966,7.064-37.192-7.406-49.536l3.137-4.143
	c8.062-10.646,5.959-25.867-4.688-33.93c-10.647-8.062-25.867-5.957-33.93,4.688l-3.136,4.142
	c-15.803-10.58-37.08-7.827-49.689,6.302l-6.263-4.743c-9.863-7.469-23.823-6.429-32.472,2.422l-12.125,12.415
	C115.782-11.825,50.499-9.342,17.492,34.249C-10.716,71.498-3.959,124.043,31.646,153.14z M427.742,185.313l-0.907,44.718
	l-26.555-11.425l0.469-22.752L427.742,185.313z M280.358,16.875c4.052,3.069,4.853,8.862,1.783,12.915l-3.093,4.085l-14.698-11.13
	l3.094-4.086C270.511,14.608,276.306,13.808,280.358,16.875z M245.122,27.002c18.427,13.954,19.225,14.558,35.041,26.535
	c9.355,7.084,11.819,19.941,6.191,29.89L214.67,29.145C222.719,21.032,235.766,19.916,245.122,27.002z M174.654,28.21
	c3.377-3.458,8.829-3.866,12.685-0.946l108.239,81.963c3.854,2.918,4.94,8.276,2.527,12.465
	c-8.254,14.331-67.434,117.084-79.774,138.509l-107.651-81.517c-3.304-2.5-8.006-1.851-10.507,1.452
	c-2.5,3.302-1.851,8.006,1.452,10.507l109.16,82.66c-6.342,9.653-6.859,15.66-13.56,17.02c-2.746,0.556-5.485-0.068-7.717-1.759
	L43.474,177.983c-4.595-3.478-5.148-10.214-1.073-14.385l9.995-10.232l21.262,16.101c3.303,2.501,8.005,1.851,10.507-1.452
	c2.5-3.302,1.851-8.006-1.452-10.507l-19.752-14.958L174.654,28.21z M60.693,123.405c-20.966-14.46-25.822-43.735-10.294-64.242
	c18.106-23.912,54.545-23.867,72.34,0.725L60.693,123.405z M29.451,43.303c27.521-36.344,82.192-38.045,111.697-2.549l-7.929,8.117
	c-24.284-30.456-71.11-30.02-94.779,1.237c-19.969,26.37-14.824,63.987,11.493,84.022l-7.928,8.115
	C11.948,118.442,5.856,74.46,29.451,43.303z"/>
<path d="M179.316,186.602c19.847,0,36.042-16.342,36.908-35.854l1.387-31.251c0.451-10.129-9.394-17.582-19.02-14.404l-29.706,9.808
	c-19.084,6.302-30.549,27.336-23.984,46.93C150.096,177.333,164.098,186.602,179.316,186.602z M173.588,129.146l29.005-9.576
	l-1.354,30.515c-0.767,17.242-20.369,27.925-34.837,17.277C152.248,156.334,157.186,134.561,173.588,129.146z"/>
<path d="M498.887,374.941c-21.813,0-42.813,5.341-61.504,15.395c-16.514-8.854-34.827-14.019-53.583-15.149v-48.225
	c15.846-15.081,14.367-41.026-3.615-54.112c-2.736-1.995-6.472-1.903-9.11,0.217c-16.93,13.602-17.513,38.654-2.248,53.124
	c-0.042,0.595-0.022,31.811-0.027,48.949c-19.239,1.038-37.704,6.247-54.34,15.196c-15.863-8.505-33.388-13.599-51.369-14.991
	v-14.48c15.848-15.078,14.367-41.027-3.615-54.113c-2.737-1.995-6.472-1.904-9.111,0.218c-16.937,13.611-17.515,38.651-2.247,53.123
	c-0.054,0.775-0.011-0.734-0.027,14.95c-20.036,0.745-39.282,6.002-56.555,15.293c-13.797-7.397-28.849-12.226-44.365-14.273
	c11.199-15.363,8.321-37.555-7.833-49.31c-2.737-1.995-6.472-1.904-9.111,0.218c-15.137,12.163-17.187,33.454-6.598,48.144
	c-26.872,1.301-52.163,10.669-73.496,27.324c-3.265,2.549-3.846,7.263-1.297,10.527c2.551,3.267,7.265,3.845,10.527,1.297
	c19.811-15.466,43.487-23.821,68.591-24.277v9.4c0,4.143,3.357,7.5,7.5,7.5c4.143,0,7.5-3.357,7.5-7.5v-8.72
	c11.628,1.302,22.991,4.358,33.661,9.067c-30.733,22.403-50.963,57.321-53.406,97.176c-0.002,0.025-0.004,0.051-0.006,0.076H23.554
	c-4.569,0-7.991-4.061-7.337-8.58c2.613-18.07,9.644-35.495,20.328-50.388c2.415-3.365,1.644-8.051-1.722-10.466
	c-3.365-2.414-8.051-1.646-10.466,1.722c-12.08,16.838-20.029,36.544-22.987,56.986c-1.96,13.557,8.495,25.728,22.184,25.728
	c25.596,0,441.149,0,466.781,0c11.946,0,21.665-9.719,21.665-21.666V388.055C512,380.827,506.119,374.943,498.887,374.941z
	 M135.18,343.596c4.711,6.64,4.998,15.684,0.541,22.651C131.009,359.605,130.721,350.563,135.18,343.596z M376.028,289.693
	c4.723,6.654,4.991,15.697,0.542,22.651C371.827,305.66,371.597,296.618,376.028,289.693z M376.299,406.885
	c4.143,0,7.5-3.357,7.5-7.5v-9.168c13.367,0.911,26.465,4.133,38.661,9.516c-30.403,22.163-50.884,56.807-53.411,97.252H261.158
	c4.024-56.836,49.61-103.219,107.641-106.814v9.214C368.799,403.528,372.157,406.885,376.299,406.885z M255.319,323.595
	c4.74,6.681,4.974,15.725,0.541,22.651C251.114,339.558,250.895,330.507,255.319,323.595z M255.589,406.885
	c4.143,0,7.5-3.357,7.5-7.5v-8.997c12.598,1.103,24.925,4.259,36.447,9.345c-30.794,22.448-50.913,57.267-53.412,97.252h-107.89
	c4.152-58.641,51.976-104.461,109.855-106.932v9.333C248.089,403.528,251.447,406.885,255.589,406.885z M497,490.32
	c0,3.675-2.99,6.665-6.665,6.665H384.083c4.222-59.621,53.605-106.068,112.916-107.029V490.32H497z"/>
<path d="M88.401,461.182c0.675-3.255-0.959-6.908-4.48-8.39c-6.275-2.518-12.311,3.68-9.79,9.8
	C76.862,469.4,87.044,468.423,88.401,461.182z"/>
<path d="M108.601,433.651c3.054,1.197,6.154,0.401,8.171-1.63c5.133-4.99,0.63-14.138-6.761-12.65
	C104.208,420.47,101.541,430.674,108.601,433.651z"/>
<path d="M196.223,453.481c-5.122,3.386-4.055,11.068,1.301,13.16c5.313,2.252,11.346-2.258,10.22-8.39
	C206.581,452.812,200.542,450.643,196.223,453.481z"/>
<path d="M232.275,419.371c-8.815-1.809-12.643,10.856-4.33,14.28c2.484,0.999,5.032,0.626,7.029-0.689
	C239.52,429.855,239.181,420.679,232.275,419.371z"/>
<path d="M318.256,452.371c-3.532,0.669-6.03,3.838-6.03,7.351c0,2.05,0.85,3.987,2.2,5.3c1.393,1.433,3.4,2.2,5.3,2.2
	c3.445,0,6.579-2.36,7.351-6.04C328.141,456.047,323.537,451.286,318.256,452.371z"/>
<path d="M351.606,419.371c-6.529-1.355-11.4,6.034-7.699,11.511c4.468,6.798,15.224,2.395,13.59-5.63
	C357.161,423.678,354.688,419.953,351.606,419.371z"/>
<path d="M433.758,465.022c0.648,0.666,1.518,1.255,2.43,1.62c0.947,0.392,1.927,0.58,2.87,0.58c0.49,0,0.98-0.05,1.471-0.15
	c0.479-0.09,0.949-0.239,1.399-0.43c0.45-0.18,0.891-0.41,1.29-0.68c0.42-0.28,0.8-0.591,1.14-0.94c0.351-0.34,0.66-0.729,0.94-1.14
	c0.271-0.4,0.5-0.84,0.69-1.29c0.18-0.46,0.33-0.931,0.42-1.41c0.1-0.48,0.149-0.97,0.149-1.46c0-1.98-0.8-3.91-2.2-5.3
	c-1.936-1.948-5.059-2.852-8.17-1.63c-3.437,1.449-5.176,5.061-4.479,8.39C431.798,461.662,432.644,463.939,433.758,465.022z"/>
<path d="M463.25,430.882c0.27,0.41,0.58,0.8,0.93,1.14c1.4,1.4,3.33,2.2,5.3,2.2c0.49,0,0.98-0.05,1.471-0.15
	c0.47-0.09,0.949-0.239,1.399-0.42c0.45-0.189,0.891-0.42,1.29-0.689c0.42-0.28,0.8-0.591,1.141-0.94
	c0.972-0.945,1.735-2.278,2.06-3.84c0.662-3.54-1.164-6.99-4.49-8.39c-5.688-2.283-11.405,2.673-10.22,8.39
	C462.286,429.017,462.671,430.025,463.25,430.882z"/>
<path d="M435.441,322.454c-21.178-9.722-45.755,3.283-49.601,26.292c-0.559,3.34,1.191,6.64,4.269,8.053
	c21.185,9.72,45.756-3.287,49.601-26.292C440.269,327.167,438.52,323.867,435.441,322.454z M402.766,344.932
	c3.863-7.238,11.859-11.481,20.02-10.611C418.972,341.468,411.05,345.8,402.766,344.932z"/>
<path d="M317.157,322.455c-3.076,1.412-4.825,4.712-4.268,8.051c3.841,22.991,28.397,36.023,49.6,26.293
	c3.077-1.413,4.827-4.713,4.269-8.053c-1.831-10.955-8.501-20.217-18.298-25.412C338.659,318.139,327.249,317.82,317.157,322.455z
	 M349.832,344.932c-3.959,0.414-7.984-0.34-11.619-2.268c-3.637-1.928-6.525-4.832-8.399-8.344c3.958-0.422,7.983,0.341,11.62,2.268
	C345.07,338.516,347.957,341.42,349.832,344.932z"/>
<g>
</g>
<g>
</g>
<g>
</g>
<g>
</g>
<g>
</g>
<g>
</g>
<g>
</g>
<g>
</g>
<g>
</g>
<g>
</g>
<g>
</g>
<g>
</g>
<g>
</g>
<g>
</g>
<g>
</g>
</svg>
