<svg id="Layer_1" enable-background="new 0 0 464.056 464.056" height="512" viewBox="0 0 464.056 464.056" width="512" xmlns="http://www.w3.org/2000/svg"><path d="m440.038 169.648v262.38c0 17.67-14.33 32-32 32h-352c-17.67 0-32-14.33-32-32 0-248.047-.021-201.581.07-262.38z" fill="#d6f4fc"/><path d="m440.038 169.648v60.598c0 13.114-10.512 23.978-23.626 24.031-.146.001-368.493.001-368.759 0-13.11-.057-23.615-10.921-23.615-24.031 0-17.484-.013-5.22.07-60.598z" fill="#bdeffc"/><path d="m464.038 169.648c0 32.017-25.963 58-58 58-32.03 0-58-25.97-58-58 0 32.03-25.97 58-58 58s-58-25.97-58-58c0 32.03-25.97 58-58 58s-58-25.97-58-58c-.05 31.82-26.24 58-58 58-31.721 0-57.95-26.147-58-58 0-50.408-.138-47.306.35-49.62.48-2.271-2.847 5.77 47.47-110.36 2.54-5.85 8.31-9.64 14.68-9.64h339c6.37 0 12.14 3.79 14.68 9.64 50.472 116.487 46.965 107.974 47.47 110.36.488 2.31.35-.842.35 49.62z" fill="#ff6d7a"/><path d="m464.038 169.648c0 32.017-25.963 58-58 58-32.03 0-58-25.97-58-58 0 32.03-25.97 58-58 58s-58-25.97-58-58c0 32.03-25.97 58-58 58s-58-25.97-58-58c-.05 31.82-26.24 58-58 58-31.721 0-57.95-26.147-58-58-.079-50.684-.067-47.643.35-49.62h463.3c.488 2.31.35-.842.35 49.62z" fill="#fe4f60"/><path d="m397.216 42.775c-101.577-13.98-204.092 3.951-287.008 66.429-9.333 7.033-20.709 10.823-32.395 10.823h-77.425c.48-2.271-2.847 5.77 47.47-110.36 2.54-5.85 8.31-9.64 14.68-9.64h339c6.376 0 12.143 3.786 14.678 9.636l2.229 5.142c6.246 14.414-5.668 30.112-21.229 27.97z" fill="#ff7c87"/><g fill="#fff"><path d="m113.638 355.628c20.733 0 37.601-16.867 37.601-37.6s-16.867-37.6-37.601-37.6c-20.732 0-37.6 16.867-37.6 37.6s16.867 37.6 37.6 37.6zm0-59.2c11.91 0 21.601 9.689 21.601 21.6s-9.69 21.6-21.601 21.6-21.6-9.689-21.6-21.6 9.69-21.6 21.6-21.6z"/><path d="m182.708 355.628c4.418 0 8-3.582 8-8v-11.729h11.73c7.406 0 14.369-2.885 19.606-8.123 17.339-17.342 5.115-47.347-19.606-47.347h-19.73c-4.418 0-8 3.582-8 8v59.199c0 4.418 3.582 8 8 8zm8-59.2h11.73c6.468 0 11.729 5.262 11.729 11.729 0 6.493-5.25 11.74-11.729 11.74h-11.73z"/><path d="m261.638 355.628h39.471c4.418 0 8-3.582 8-8s-3.582-8-8-8h-31.471v-13.6h19.4c4.418 0 8-3.582 8-8s-3.582-8-8-8h-19.4v-13.6h31.471c4.418 0 8-3.582 8-8s-3.582-8-8-8h-39.471c-4.418 0-8 3.582-8 8v59.199c0 4.419 3.582 8.001 8 8.001z"/><path d="m380.038 280.428c-4.418 0-8 3.582-8 8v32.779l-24.813-37.217c-1.955-2.934-5.596-4.242-8.975-3.219-3.374 1.021-5.682 4.131-5.682 7.656v59.199c0 4.418 3.582 8 8 8s8-3.582 8-8v-32.779l24.813 37.217c1.512 2.268 4.032 3.563 6.657 3.563 4.397 0 7.999-3.569 7.999-8.001v-59.199c.001-4.417-3.581-7.999-7.999-7.999z"/><path d="m380.038 394.028h-296c-4.418 0-8 3.582-8 8s3.582 8 8 8h296c4.418 0 8-3.582 8-8s-3.582-8-8-8z"/></g></svg>